<svg class="_svg" viewBox="0 0 44 44" width="44" xmlns="http://www.w3.org/2000/svg" xmlns:xlink="http://www.w3.org/1999/xlink"><mask id="a___1515" fill="#fff"><path d="m0 0h44v43.9999389h-44z" fill="#fff" fill-rule="evenodd"></path></mask><mask id="b___3454" fill="#fff"><path d="m0 0h44v44h-44z" fill="#fff" fill-rule="evenodd"></path></mask><g fill="none" fill-rule="evenodd"><path d="m22 0c12.1501111 0 22 9.84988889 22 22 0 12.1501111-9.8498889 22-22 22-12.15011111 0-22-9.8498889-22-22 0-12.15011111 9.84988889-22 22-22" fill="#fff" mask="url(#a___1515)" transform="translate(0 .000061)"></path><path d="m22 39.8505556c-9.8584444 0-17.85055556-7.9921112-17.85055556-17.8505556s7.99211116-17.85055556 17.85055556-17.85055556 17.8505556 7.99211116 17.8505556 17.85055556-7.9921112 17.8505556-17.8505556 17.8505556m0-39.8505556c-12.15011111 0-22 9.84988889-22 22 0 12.1501111 9.84988889 22 22 22 12.1501111 0 22-9.8498889 22-22 0-12.15011111-9.8498889-22-22-22" fill="#93959b" mask="url(#b___3454)"></path><g fill="#21409a"><path d="m36.4894444 27.38395s-2.2-3.2877778-4.8461111 0-4.8094444 0-4.8094444 0-2.145-3.2877778-4.8216667 0c-2.6766666 3.2877778-4.84 0-4.84 0s-2.2-3.2877778-4.8461111 0-4.81555554 0-4.81555554 0v-3.5505556s2.145 3.2816667 4.81555554 0c2.6705556-3.2816666 4.8461111 0 4.8461111 0s2.2 3.2816667 4.84 0c2.64-3.2816666 4.8216667 0 4.8216667 0s2.1388889 3.2816667 4.8094444 0c2.6705556-3.2816666 4.8461111 0 4.8461111 0z"></path><path d="m36.4894444 21.8409889s-2.2-3.2877778-4.8461111 0-4.8094444 0-4.8094444 0-2.145-3.2877778-4.8216667 0c-2.6766666 3.2877778-4.84 0-4.84 0s-2.2-3.2877778-4.8461111 0-4.81555554 0-4.81555554 0v-3.575s2.145 3.2816667 4.81555554 0c2.6705556-3.2816667 4.8461111 0 4.8461111 0s2.2 3.2816667 4.84 0 4.8216667 0 4.8216667 0 2.1388889 3.2816667 4.8094444 0c2.6705556-3.2816667 4.8461111 0 4.8461111 0z"></path></g></g></svg>